<svg width="73" height="73" viewBox="0 0 73 73" fill="none" xmlns="http://www.w3.org/2000/svg">
<g filter="url(#filter0_d_486_1209)">
<circle cx="36.5" cy="32.5" r="30" fill="#2A0800" stroke="#FFFEB2" stroke-width="5"/>
<path d="M54.4233 15.8916C53.8686 15.5417 53.1759 15.5099 52.5926 15.8076L48.8295 17.7281C47.9 18.2025 47.5233 19.3562 47.988 20.3049C48.4528 21.2536 49.583 21.6381 50.5124 21.1638L51.5525 20.6329V41.3061L44.0262 45.1473V36.7313C44.0262 35.6706 43.1838 34.8107 42.1446 34.8107C41.1055 34.8107 40.2631 35.6706 40.2631 36.7313V45.1473L32.7367 41.3061V36.7313C32.7367 35.6706 31.8943 34.8107 30.8551 34.8107C29.816 34.8107 28.9736 35.6706 28.9736 36.7313V41.3061L21.4472 45.1473V24.4741L24.1703 23.0844C25.0998 22.61 25.4765 21.4564 25.0117 20.5076C24.547 19.5589 23.4168 19.1744 22.4874 19.6487L18.7242 21.5693C18.0868 21.8947 17.6841 22.5597 17.6841 23.2871V48.2549C17.6841 48.9205 18.0217 49.5387 18.5765 49.8886C19.1312 50.2385 19.8239 50.2703 20.4071 49.9727L30.8551 44.6403L41.3032 49.9727C41.8329 50.243 42.4564 50.243 42.9861 49.9727L54.2756 44.2109C54.913 43.8855 55.3157 43.2205 55.3157 42.4931V17.5254C55.3157 16.8597 54.978 16.2416 54.4233 15.8916ZM32.7367 21.7507C32.7367 19.2985 34.534 17.5254 36.4999 17.5254C38.4657 17.5254 40.2631 19.2985 40.2631 21.7507C40.2631 22.8768 39.8013 24.0187 38.8551 25.3564C38.2025 26.279 37.4028 27.185 36.4999 28.1687C35.597 27.185 34.7973 26.279 34.1446 25.3564C33.1985 24.0187 32.7367 22.8768 32.7367 21.7507ZM36.4811 19.446C35.4419 19.446 34.5995 20.3058 34.5995 21.3666C34.5995 22.4273 35.4419 23.2871 36.4811 23.2871H36.4999C37.5391 23.2871 38.3814 22.4273 38.3814 21.3666C38.3814 20.3058 37.5391 19.446 36.4999 19.446H36.4811ZM28.9736 21.7507C28.9736 24.0189 29.923 25.9499 31.0936 27.6049C32.2432 29.2301 33.7755 30.8114 35.1272 32.2831C35.4829 32.6704 35.9798 32.8901 36.4999 32.8901C37.02 32.8901 37.5169 32.6704 37.8726 32.2831C39.2243 30.8114 40.7566 29.2301 41.9062 27.6049C43.0768 25.9499 44.0262 24.0189 44.0262 21.7507C44.0262 17.4144 40.7692 13.6842 36.4999 13.6842C32.2306 13.6842 28.9736 17.4144 28.9736 21.7507Z" fill="#FFFEB2"/>
</g>
<defs>
<filter id="filter0_d_486_1209" x="0" y="0" width="73" height="73" filterUnits="userSpaceOnUse" color-interpolation-filters="sRGB">
<feFlood flood-opacity="0" result="BackgroundImageFix"/>
<feColorMatrix in="SourceAlpha" type="matrix" values="0 0 0 0 0 0 0 0 0 0 0 0 0 0 0 0 0 0 127 0" result="hardAlpha"/>
<feOffset dy="4"/>
<feGaussianBlur stdDeviation="2"/>
<feComposite in2="hardAlpha" operator="out"/>
<feColorMatrix type="matrix" values="0 0 0 0 0 0 0 0 0 0 0 0 0 0 0 0 0 0 0.25 0"/>
<feBlend mode="normal" in2="BackgroundImageFix" result="effect1_dropShadow_486_1209"/>
<feBlend mode="normal" in="SourceGraphic" in2="effect1_dropShadow_486_1209" result="shape"/>
</filter>
</defs>
</svg>
