<svg width="81" height="68" viewBox="0 0 81 68" fill="none" xmlns="http://www.w3.org/2000/svg">
<g opacity="0.7">
<path d="M57.5 24.2424H2.5V64.7623H57.5V24.2424Z" fill="#B22300" stroke="black" stroke-width="5" stroke-miterlimit="10"/>
<path d="M57.5 52.2896L75.0183 64.7623H78.5V24.2424H75.0183L57.5 36.7151V52.2896Z" fill="#B22300" stroke="black" stroke-width="5" stroke-miterlimit="10"/>
<path d="M14.5 24.2424C21.1274 24.2424 26.5 19.3752 26.5 13.3712C26.5 7.3672 21.1274 2.5 14.5 2.5C7.87258 2.5 2.5 7.3672 2.5 13.3712C2.5 19.3752 7.87258 24.2424 14.5 24.2424Z" fill="#B22300" stroke="black" stroke-width="5" stroke-miterlimit="10"/>
<path d="M45.5 24.2424C52.1274 24.2424 57.5 19.3752 57.5 13.3712C57.5 7.3672 52.1274 2.5 45.5 2.5C38.8726 2.5 33.5 7.3672 33.5 13.3712C33.5 19.3752 38.8726 24.2424 45.5 24.2424Z" fill="#B22300" stroke="black" stroke-width="5" stroke-miterlimit="10"/>
<path d="M12.5 36.1019H19.5" stroke="black" stroke-width="5" stroke-miterlimit="10"/>
</g>
</svg>
