<svg width="18" height="19" viewBox="0 0 18 19" fill="none" xmlns="http://www.w3.org/2000/svg">
<path d="M15.6 13C15.6 11.8302 15.5977 11.0641 15.5239 10.4972C15.4536 9.95749 15.3372 9.77816 15.2422 9.68001C15.1562 9.59133 15.0096 9.48409 14.5185 9.41594C13.9854 9.34197 13.2589 9.33919 12.12 9.33919H5.88C4.74106 9.33919 4.01458 9.34197 3.48155 9.41594C2.99042 9.48409 2.84376 9.59134 2.75785 9.68001C2.66276 9.77816 2.54643 9.95748 2.47613 10.4972C2.40229 11.0641 2.4 11.8302 2.4 13C2.4 14.1698 2.40229 14.9359 2.47613 15.5028C2.54643 16.0425 2.66276 16.2218 2.75785 16.32C2.84376 16.4087 2.99042 16.5159 3.48155 16.5841C4.01458 16.658 4.74106 16.6608 5.88 16.6608H12.12C13.2589 16.6608 13.9854 16.658 14.5185 16.5841C15.0096 16.5159 15.1562 16.4087 15.2422 16.32C15.3372 16.2218 15.4536 16.0425 15.5239 15.5028C15.5977 14.9359 15.6 14.1698 15.6 13ZM18 13C18 14.1073 18.0023 15.0489 17.9047 15.7974C17.8037 16.5731 17.5774 17.3167 16.9871 17.926C16.3876 18.5447 15.64 18.7912 14.8567 18.8999C14.1154 19.0028 13.1872 19 12.12 19H5.88C4.81279 19 3.88464 19.0028 3.14325 18.8999C2.35995 18.7912 1.61234 18.5447 1.01288 17.926C0.422603 17.3167 0.196288 16.573 0.0952544 15.7974C-0.0022499 15.0489 4.40337e-06 14.1073 4.40337e-06 13C4.40337e-06 11.8927 -0.0022499 10.9511 0.0952544 10.2026C0.196289 9.42695 0.422603 8.68328 1.01288 8.07402C1.61234 7.45528 2.35995 7.20881 3.14325 7.10011C3.88464 6.99723 4.81279 7.00001 5.88 7.00001H12.12C13.1872 7.00001 14.1154 6.99722 14.8567 7.10011C15.64 7.20881 16.3876 7.45529 16.9871 8.07402C17.5774 8.68329 17.8037 9.42695 17.9047 10.2026C18.0023 10.9511 18 11.8927 18 13Z" fill="white"/>
<path d="M12.551 7.80107V6.15052C12.551 4.01233 10.896 2.39786 9 2.39786C7.10398 2.39786 5.44898 4.01233 5.44898 6.15052V7.80107C5.44897 8.46321 4.90075 9 4.22449 9C3.54823 9 3.00001 8.46321 3 7.80107V6.15052C3 2.81933 5.62113 0 9 0C12.3789 0 15 2.81933 15 6.15052V7.80107C15 8.46321 14.4518 9 13.7755 9C13.0992 9 12.551 8.46321 12.551 7.80107Z" fill="white"/>
</svg>
