<svg width="37" height="36" viewBox="0 0 37 36" fill="none" xmlns="http://www.w3.org/2000/svg">
<path d="M25.1548 6.12745C25.1548 5.31597 24.8544 4.53772 24.3198 3.96391C23.7851 3.39011 23.0599 3.06775 22.3038 3.06775H13.7233C13.3481 3.06634 12.9762 3.14443 12.6292 3.29757C12.2821 3.4507 11.9667 3.67585 11.7009 3.9601C11.4351 4.24436 11.2242 4.58217 11.0803 4.95409C10.9364 5.326 10.8623 5.72475 10.8623 6.12745V19.9323H25.1548V6.12745ZM28.0133 23H8.00381V6.12745C8.00381 5.32098 8.15212 4.52243 8.4403 3.77762C8.72848 3.03281 9.15085 2.35637 9.68315 1.7871C10.2154 1.21785 10.8472 0.766959 11.5422 0.460292C12.2357 0.1543 12.9785 -0.0020643 13.7283 4.7055e-05V0H22.3038C23.8181 4.28392e-06 25.2703 0.645572 26.341 1.79468C27.4118 2.94379 28.0133 4.50235 28.0133 6.12745V23Z" fill="#FFFEB2"/>
<path d="M7.14415 16.25H2.86064V20.3083C2.86064 20.9541 3.08586 21.5736 3.48696 22.0312C3.88747 22.4882 4.43079 22.7465 4.99831 22.75C5.56709 22.749 6.11237 22.4918 6.51462 22.0348C6.91768 21.5769 7.14415 20.9558 7.14415 20.3082V16.25ZM10.0048 20.3082C10.0048 21.8178 9.47696 23.2655 8.53742 24.3329C7.59789 25.4004 6.32359 26 4.99489 26H4.98892C3.66386 25.9937 2.39495 25.3912 1.45995 24.3245C0.524947 23.2578 1.13189e-05 21.8137 2.28884e-05 20.3082V13H10.0048V20.3082Z" fill="#FFFEB2"/>
<path d="M33.1607 16.25H28.8687V20.3082C28.8687 20.9558 29.0948 21.5769 29.4973 22.0348C29.8997 22.4927 30.4456 22.75 31.0147 22.75C31.5839 22.75 32.1297 22.4927 32.5322 22.0348C32.9346 21.5769 33.1607 20.9558 33.1607 20.3082V16.25ZM36.0171 20.3082C36.0171 21.8178 35.49 23.2655 34.5519 24.3329C33.6138 25.4003 32.3414 26 31.0147 26C29.688 26 28.4156 25.4004 27.4775 24.3329C26.5394 23.2655 26.0123 21.8178 26.0123 20.3082V13H36.0171V20.3082Z" fill="#FFFEB2"/>
<path d="M30.5057 23C30.84 23.6914 31.0145 24.4576 31.0147 25.235V25.2356C31.0147 26.4992 30.5425 27.711 29.702 28.6045C28.8614 29.498 27.7214 30 26.5327 30H9.48441C8.2957 30 7.15567 29.498 6.31513 28.6045C5.4746 27.711 5.0024 26.4992 5.0024 25.2356V25.235C5.00266 24.4576 5.17714 23.6914 5.51141 23L8.08804 24.4076C7.96414 24.6639 7.89947 24.9479 7.89937 25.2361C7.8995 25.6827 8.06651 26.1111 8.36364 26.4269C8.66088 26.7429 9.06404 26.9204 9.48441 26.9204H26.5327C26.9531 26.9204 27.3562 26.7429 27.6535 26.4269C27.9506 26.1111 28.1176 25.6827 28.1177 25.2361L28.1175 25.2091C28.1135 24.9302 28.0491 24.6559 27.929 24.4076L30.5057 23Z" fill="#FFFEB2"/>
<path d="M27.4822 20L28.0133 20.6337L26.8077 21.6907V23H9.20943V21.6907L8.00381 20.6337L8.53491 20H27.4822Z" fill="#FFFEB2"/>
<path d="M12.0057 28V34H9.00429V28H12.0057Z" fill="#FFFEB2"/>
<path d="M27.0128 28V34H24.0114V28H27.0128Z" fill="#FFFEB2"/>
<path d="M13.0062 33V36H8.00381V33H13.0062Z" fill="#FFFEB2"/>
<path d="M28.0133 33V36H23.0109V33H28.0133Z" fill="#FFFEB2"/>
</svg>
