<svg width="35" height="30" viewBox="0 0 35 30" fill="none" xmlns="http://www.w3.org/2000/svg">
<path d="M7.14339 3.04039e-06C6.21892 3.04039e-06 5.42323 -0.00131494 4.77067 0.0509308C4.09828 0.104765 3.42946 0.223631 2.78591 0.544974L2.74106 0.56763C1.8017 1.04818 1.03767 1.80376 0.556137 2.72998L0.526043 2.78921C0.220737 3.40162 0.105198 4.03663 0.0519753 4.67495C-0.00134277 5.31441 3.8147e-06 6.0941 3.8147e-06 7V23C3.8147e-06 23.9059 -0.00134277 24.6856 0.0519753 25.325C0.106911 25.9839 0.22826 26.6392 0.556137 27.2698L0.556087 27.2699C1.04519 28.2107 1.82585 28.9756 2.78591 29.4549L2.78586 29.455C3.42942 29.7763 4.09826 29.8952 4.77067 29.949C5.42323 30.0013 6.21892 30 7.14339 30H26.8727C27.7972 30 28.5929 30.0013 29.2454 29.949C29.9179 29.8952 30.5867 29.7763 31.2302 29.455V29.4549C32.1904 28.9756 32.9708 28.2106 33.4599 27.27C33.7879 26.6393 33.9092 25.9839 33.9641 25.325C34.0175 24.6856 34.0161 23.9059 34.0161 23V7C34.0161 6.09409 34.0175 5.3144 33.9641 4.67495C33.9092 4.01606 33.7879 3.3607 33.46 2.73008H33.46C32.9708 1.78924 32.1902 1.02428 31.2301 0.544925V0.544974C30.5866 0.223658 29.9178 0.104765 29.2454 0.0509308C28.5928 -0.00131413 27.7972 3.04039e-06 26.8727 3.04039e-06H7.14339ZM23.8113 3.3333V26.6666H10.2048V3.3333H23.8113ZM30.6144 23.3333C30.6136 24.1085 30.6084 24.6384 30.5738 25.0536C30.5361 25.5064 30.472 25.6743 30.4292 25.7566H30.4291C30.2711 26.0605 30.022 26.3092 29.7158 26.4696L29.686 26.4849L29.6858 26.485C29.6017 26.527 29.4304 26.5898 28.9684 26.6268C28.5447 26.6607 28.004 26.6658 27.2129 26.6665V23.3333H30.6144ZM6.80322 26.6665C6.01216 26.6658 5.47142 26.6607 5.04766 26.6268C4.5856 26.5898 4.41432 26.527 4.33028 26.485L4.33014 26.4849C4.01024 26.3252 3.75001 26.0703 3.58705 25.7568L3.58695 25.7566C3.54412 25.6742 3.48005 25.5064 3.44229 25.0536C3.40767 24.6384 3.40248 24.1085 3.40173 23.3333H6.80322V26.6665ZM6.80322 20H3.40158V16.6667H6.80322V20ZM30.6145 20H27.2129V16.6667H30.6145V20ZM6.80322 13.3333H3.40158V10H6.80322V13.3333ZM30.6145 13.3333H27.2129V10H30.6145V13.3333ZM6.80322 6.66665H3.40173C3.40248 5.89148 3.40767 5.36163 3.44229 4.94639C3.48005 4.49362 3.54415 4.32575 3.587 4.24336L3.5871 4.24317C3.75002 3.92976 4.01018 3.67481 4.33023 3.51499L4.33028 3.51494C4.41434 3.47298 4.58563 3.41019 5.04766 3.3732C5.47143 3.33927 6.01216 3.33414 6.80322 3.3334V6.66665ZM27.2129 3.3334C28.0039 3.33414 28.5447 3.33927 28.9684 3.3732C29.4304 3.41019 29.6017 3.47301 29.6858 3.51499H29.6859C30.0059 3.67477 30.2661 3.92972 30.4291 4.24331V4.24336C30.472 4.32576 30.5361 4.49362 30.5738 4.94639C30.6084 5.36163 30.6136 5.89148 30.6144 6.66665H27.2129V3.3334Z" fill="#FFFEB2"/>
</svg>
