<svg width="31" height="34" viewBox="0 0 31 34" fill="none" xmlns="http://www.w3.org/2000/svg">
<path fill-rule="evenodd" clip-rule="evenodd" d="M26.631 29.0112C26.631 29.999 25.7788 30.4213 24.7288 30.4213H22.8266C21.7766 30.4213 20.9244 29.999 20.9244 29.0112V27.2218C20.9244 25.2444 19.2219 23.2634 17.12 23.2634H13.3155C11.2136 23.2634 9.51108 25.2444 9.51108 27.2218V29.0112C9.51108 29.999 8.65889 30.4213 7.60887 30.4213H5.70665C4.65663 30.4213 3.80443 29.999 3.80443 29.0112V14.5826C3.80443 14.3446 3.90524 14.1174 4.08215 13.9492L13.8539 4.75844C14.5976 4.05876 15.8017 4.05876 16.5436 4.75844L26.3533 13.985C26.5302 14.1532 26.631 14.3805 26.631 14.6167V29.0112ZM30.4355 13.645C30.4355 13.1708 30.2358 12.718 29.882 12.3816L17.8999 1.05422C16.4162 -0.346942 14.006 -0.352277 12.5166 1.04351L0.559257 12.2546C0.20164 12.591 0 13.0456 0 13.5216V30.8007C0 32.7781 1.70249 34.0002 3.80443 34.0002H9.51108C11.613 34.0002 13.3155 32.7781 13.3155 30.8007V29.0112C13.3155 28.0235 14.1677 27.2218 15.2177 27.2218C16.2678 27.2218 17.12 28.0235 17.12 29.0112V30.8007C17.12 32.7781 18.8224 34.0002 20.9244 34.0002H26.631C28.733 34.0002 30.4355 32.7781 30.4355 30.8007V13.645Z" fill="#FFFEB2"/>
</svg>
