<svg width="34" height="32" viewBox="0 0 34 32" fill="none" xmlns="http://www.w3.org/2000/svg">
<mask id="path-1-inside-1_486_13516" fill="white">
<path d="M33.0649 25.83C32.8549 24.78 32.5049 23.73 32.0849 22.75C30.5449 19.11 27.7449 16.1 24.3149 14.35C25.2949 12.88 25.8549 11.13 25.8549 9.24C25.8549 4.13 21.7249 0 16.6149 0C11.5049 0 7.37493 4.13 7.37493 9.24C7.37493 11.13 7.93493 12.88 8.91493 14.35C4.36493 16.66 1.14493 20.86 0.0949296 25.76C-0.18507 27.16 0.16493 28.56 1.00493 29.68C1.91493 30.8 3.24493 31.43 4.64493 31.43H28.5149C29.9149 31.43 31.2449 30.8 32.1549 29.68C33.0649 28.63 33.4149 27.23 33.0649 25.83ZM16.5449 2.94C20.0449 2.94 22.8449 5.81 22.8449 9.24C22.8449 12.67 19.9749 15.54 16.5449 15.54C13.0449 15.54 10.2449 12.67 10.2449 9.24C10.2449 5.81 13.1149 2.94 16.5449 2.94ZM29.8449 27.93C29.4949 28.35 29.0049 28.56 28.5149 28.56H4.64493C4.08493 28.56 3.59493 28.35 3.31493 27.93C2.96493 27.51 2.82493 26.95 2.96493 26.46C3.87493 22.19 6.81493 18.55 10.8049 16.66C10.8749 16.66 10.8749 16.59 10.9449 16.59C12.4849 17.78 14.4449 18.55 16.5449 18.55C18.6449 18.55 20.6049 17.85 22.2149 16.59C22.2849 16.59 22.2849 16.66 22.3549 16.66C25.5049 18.13 28.0249 20.65 29.3549 23.87C29.7049 24.71 29.9849 25.55 30.1949 26.46C30.3349 26.88 30.1949 27.51 29.8449 27.93Z"/>
</mask>
<path d="M33.0649 25.83C32.8549 24.78 32.5049 23.73 32.0849 22.75C30.5449 19.11 27.7449 16.1 24.3149 14.35C25.2949 12.88 25.8549 11.13 25.8549 9.24C25.8549 4.13 21.7249 0 16.6149 0C11.5049 0 7.37493 4.13 7.37493 9.24C7.37493 11.13 7.93493 12.88 8.91493 14.35C4.36493 16.66 1.14493 20.86 0.0949296 25.76C-0.18507 27.16 0.16493 28.56 1.00493 29.68C1.91493 30.8 3.24493 31.43 4.64493 31.43H28.5149C29.9149 31.43 31.2449 30.8 32.1549 29.68C33.0649 28.63 33.4149 27.23 33.0649 25.83ZM16.5449 2.94C20.0449 2.94 22.8449 5.81 22.8449 9.24C22.8449 12.67 19.9749 15.54 16.5449 15.54C13.0449 15.54 10.2449 12.67 10.2449 9.24C10.2449 5.81 13.1149 2.94 16.5449 2.94ZM29.8449 27.93C29.4949 28.35 29.0049 28.56 28.5149 28.56H4.64493C4.08493 28.56 3.59493 28.35 3.31493 27.93C2.96493 27.51 2.82493 26.95 2.96493 26.46C3.87493 22.19 6.81493 18.55 10.8049 16.66C10.8749 16.66 10.8749 16.59 10.9449 16.59C12.4849 17.78 14.4449 18.55 16.5449 18.55C18.6449 18.55 20.6049 17.85 22.2149 16.59C22.2849 16.59 22.2849 16.66 22.3549 16.66C25.5049 18.13 28.0249 20.65 29.3549 23.87C29.7049 24.71 29.9849 25.55 30.1949 26.46C30.3349 26.88 30.1949 27.51 29.8449 27.93Z" fill="#FFFEB2"/>
<path d="M33.0649 25.83L27.1814 27.0067L27.2094 27.1467L27.2441 27.2852L33.0649 25.83ZM32.0849 22.75L26.5591 25.0878L26.5646 25.1007L26.5701 25.1135L32.0849 22.75ZM24.3149 14.35L19.3226 11.0218L15.5832 16.6309L21.5881 19.6946L24.3149 14.35ZM8.91493 14.35L11.6311 19.7L17.6541 16.6421L13.9072 11.0218L8.91493 14.35ZM0.0949296 25.76L-5.77188 24.5028L-5.7805 24.543L-5.78855 24.5833L0.0949296 25.76ZM1.00493 29.68L-3.79507 33.28L-3.72519 33.3732L-3.65175 33.4636L1.00493 29.68ZM32.1549 29.68L27.6208 25.7504L27.5584 25.8225L27.4982 25.8964L32.1549 29.68ZM3.31493 27.93L8.30723 24.6018L8.12944 24.3351L7.92426 24.0889L3.31493 27.93ZM2.96493 26.46L8.73407 28.1083L8.79041 27.9112L8.83315 27.7106L2.96493 26.46ZM10.8049 16.66V10.66H9.45573L8.23641 11.2376L10.8049 16.66ZM10.9449 16.59L14.6136 11.8423L12.993 10.59H10.9449V16.59ZM22.2149 16.59V10.59H20.1462L18.5171 11.865L22.2149 16.59ZM22.3549 16.66L24.8922 11.2229L23.686 10.66H22.3549V16.66ZM29.3549 23.87L23.8094 26.1606L23.8129 26.1691L23.8165 26.1777L29.3549 23.87ZM30.1949 26.46L24.3486 27.8092L24.4127 28.0869L24.5028 28.3574L30.1949 26.46ZM33.0649 25.83L38.9484 24.6533C38.6414 23.1181 38.1488 21.6675 37.5998 20.3865L32.0849 22.75L26.5701 25.1135C26.861 25.7925 27.0685 26.4419 27.1814 27.0067L33.0649 25.83ZM32.0849 22.75L37.6107 20.4122C35.5287 15.4909 31.7478 11.4065 27.0417 9.00543L24.3149 14.35L21.5881 19.6946C23.742 20.7935 25.5612 22.7291 26.5591 25.0878L32.0849 22.75ZM24.3149 14.35L29.3072 17.6782C30.93 15.244 31.8549 12.34 31.8549 9.24H25.8549H19.8549C19.8549 9.91998 19.6598 10.516 19.3226 11.0218L24.3149 14.35ZM25.8549 9.24H31.8549C31.8549 0.81629 25.0386 -6 16.6149 -6V0V6C18.4112 6 19.8549 7.44371 19.8549 9.24H25.8549ZM16.6149 0V-6C8.19122 -6 1.37493 0.816292 1.37493 9.24H7.37493H13.3749C13.3749 7.44371 14.8186 6 16.6149 6V0ZM7.37493 9.24H1.37493C1.37493 12.34 2.29983 15.244 3.92263 17.6782L8.91493 14.35L13.9072 11.0218C13.57 10.516 13.3749 9.91998 13.3749 9.24H7.37493ZM8.91493 14.35L6.19877 9C0.042481 12.1255 -4.34093 17.8251 -5.77188 24.5028L0.0949296 25.76L5.96174 27.0172C6.63079 23.8949 8.68738 21.1945 11.6311 19.7L8.91493 14.35ZM0.0949296 25.76L-5.78855 24.5833C-6.41949 27.738 -5.60878 30.8617 -3.79507 33.28L1.00493 29.68L5.80493 26.08C5.86583 26.1612 5.93053 26.2823 5.96841 26.4422C6.0072 26.606 6.00996 26.779 5.97841 26.9367L0.0949296 25.76ZM1.00493 29.68L-3.65175 33.4636C-1.61566 35.9695 1.41727 37.43 4.64493 37.43V31.43V25.43C5.07259 25.43 5.44552 25.6305 5.66161 25.8964L1.00493 29.68ZM4.64493 31.43V37.43H28.5149V31.43V25.43H4.64493V31.43ZM28.5149 31.43V37.43C31.7426 37.43 34.7755 35.9695 36.8116 33.4636L32.1549 29.68L27.4982 25.8964C27.7143 25.6305 28.0873 25.43 28.5149 25.43V31.43ZM32.1549 29.68L36.6891 33.6096C38.8741 31.0884 39.7123 27.6808 38.8858 24.3748L33.0649 25.83L27.2441 27.2852C27.1881 27.0614 27.1771 26.7818 27.2481 26.486C27.3185 26.1925 27.4559 25.9407 27.6208 25.7504L32.1549 29.68ZM16.5449 2.94V8.94C16.5922 8.94 16.6223 8.94831 16.6472 8.95897C16.6767 8.97161 16.7129 8.99421 16.7486 9.0301C16.824 9.10617 16.8449 9.18239 16.8449 9.24H22.8449H28.8449C28.8449 2.53972 23.4019 -3.06 16.5449 -3.06V2.94ZM22.8449 9.24H16.8449C16.8449 9.25378 16.8398 9.33239 16.7385 9.43361C16.6373 9.53482 16.5587 9.54 16.5449 9.54V15.54V21.54C23.2886 21.54 28.8449 15.9837 28.8449 9.24H22.8449ZM16.5449 15.54V9.54C16.4977 9.54 16.4676 9.53169 16.4427 9.52103C16.4131 9.50839 16.3769 9.48579 16.3413 9.4499C16.2658 9.37384 16.2449 9.29761 16.2449 9.24H10.2449H4.24493C4.24493 15.9403 9.68795 21.54 16.5449 21.54V15.54ZM10.2449 9.24H16.2449C16.2449 9.22622 16.2501 9.1476 16.3513 9.04639C16.4525 8.94518 16.5311 8.94 16.5449 8.94V2.94V-3.06C9.80122 -3.06 4.24493 2.49629 4.24493 9.24H10.2449ZM29.8449 27.93L25.2356 24.0889C26.0572 23.103 27.2742 22.56 28.5149 22.56V28.56V34.56C30.7357 34.56 32.9327 33.597 34.4543 31.7711L29.8449 27.93ZM28.5149 28.56V22.56H4.64493V28.56V34.56H28.5149V28.56ZM4.64493 28.56V22.56C5.52663 22.56 7.19407 22.9321 8.30723 24.6018L3.31493 27.93L-1.67737 31.2582C-0.00421081 33.7679 2.64323 34.56 4.64493 34.56V28.56ZM3.31493 27.93L7.92426 24.0889C8.67493 24.9897 9.20875 26.447 8.73407 28.1083L2.96493 26.46L-2.80421 24.8117C-3.55889 27.453 -2.74507 30.0303 -1.2944 31.7711L3.31493 27.93ZM2.96493 26.46L8.83315 27.7106C9.34082 25.3285 11.018 23.1982 13.3734 22.0824L10.8049 16.66L8.23641 11.2376C2.61186 13.9018 -1.59096 19.0515 -2.90329 25.2094L2.96493 26.46ZM10.8049 16.66V22.66C11.0602 22.66 11.3284 22.644 11.6068 22.607C11.8858 22.57 12.1664 22.5131 12.446 22.4348C12.7257 22.3564 12.9928 22.26 13.246 22.149C13.4988 22.0383 13.7279 21.9174 13.9335 21.794C14.3413 21.5493 14.6434 21.3026 14.8313 21.1368C14.9252 21.054 14.9989 20.9838 15.0442 20.9399C15.0673 20.9175 15.086 20.899 15.0977 20.8874C15.1037 20.8815 15.1086 20.8766 15.1118 20.8734C15.1148 20.8704 15.1174 20.8678 15.1176 20.8676C15.1201 20.8651 15.1129 20.8723 15.1043 20.8809C15.0948 20.8903 15.0783 20.9066 15.0574 20.9268C15.0166 20.9664 14.9473 21.0324 14.8581 21.1111C14.6795 21.2687 14.3872 21.5078 13.9904 21.7459C13.7903 21.8659 13.5669 21.9839 13.3202 22.092C13.0731 22.2003 12.8124 22.2944 12.5395 22.3708C12.2668 22.4472 11.9934 22.5026 11.7221 22.5386C11.4515 22.5745 11.1914 22.59 10.9449 22.59V16.59V10.59C10.6897 10.59 10.4214 10.606 10.143 10.643C9.86401 10.68 9.58345 10.7369 9.30387 10.8152C9.02413 10.8936 8.75705 10.99 8.50381 11.101C8.25106 11.2117 8.02194 11.3326 7.81634 11.456C7.40856 11.7007 7.10645 11.9474 6.91854 12.1132C6.82469 12.196 6.75092 12.2662 6.70563 12.3101C6.68255 12.3325 6.66385 12.351 6.65213 12.3626C6.64615 12.3685 6.64122 12.3734 6.63802 12.3766C6.63506 12.3796 6.63244 12.3822 6.63224 12.3824C6.62976 12.3849 6.63695 12.3777 6.64555 12.3691C6.65509 12.3597 6.67158 12.3434 6.69244 12.3232C6.73328 12.2836 6.80254 12.2176 6.89175 12.1389C7.07036 11.9813 7.36262 11.7422 7.75946 11.5041C7.95959 11.3841 8.18297 11.2661 8.42964 11.158C8.6768 11.0497 8.93745 10.9556 9.21036 10.8792C9.4831 10.8028 9.75642 10.7474 10.0277 10.7114C10.2984 10.6755 10.5585 10.66 10.8049 10.66V16.66ZM10.9449 16.59L7.27624 21.3377C9.74617 23.2463 12.9723 24.55 16.5449 24.55V18.55V12.55C15.9176 12.55 15.2237 12.3137 14.6136 11.8423L10.9449 16.59ZM16.5449 18.55V24.55C20.0142 24.55 23.2701 23.3832 25.9128 21.315L22.2149 16.59L18.5171 11.865C17.9397 12.3168 17.2757 12.55 16.5449 12.55V18.55ZM22.2149 16.59V22.59C21.9685 22.59 21.7084 22.5745 21.4377 22.5386C21.1664 22.5026 20.8931 22.4472 20.6204 22.3708C20.3474 22.2944 20.0868 22.2003 19.8396 22.092C19.593 21.9839 19.3696 21.8659 19.1695 21.7459C18.7726 21.5078 18.4804 21.2687 18.3017 21.1111C18.2125 21.0324 18.1433 20.9664 18.1024 20.9268C18.0816 20.9066 18.0651 20.8903 18.0556 20.8809C18.0469 20.8723 18.0398 20.8651 18.0422 20.8676C18.0424 20.8678 18.0451 20.8704 18.048 20.8734C18.0512 20.8766 18.0561 20.8815 18.0621 20.8874C18.0739 20.899 18.0926 20.9175 18.1156 20.9399C18.1609 20.9838 18.2347 21.054 18.3285 21.1368C18.5165 21.3026 18.8186 21.5493 19.2263 21.794C19.4319 21.9174 19.6611 22.0383 19.9138 22.149C20.1671 22.26 20.4341 22.3564 20.7139 22.4348C20.9934 22.5131 21.274 22.57 21.553 22.607C21.8314 22.644 22.0997 22.66 22.3549 22.66V16.66V10.66C22.6014 10.66 22.8615 10.6755 23.1321 10.7114C23.4034 10.7474 23.6768 10.8028 23.9495 10.8792C24.2224 10.9556 24.4831 11.0497 24.7302 11.158C24.9769 11.2661 25.2003 11.3841 25.4004 11.5041C25.7972 11.7422 26.0895 11.9813 26.2681 12.1389C26.3573 12.2176 26.4266 12.2836 26.4674 12.3232C26.4883 12.3434 26.5048 12.3597 26.5143 12.3691C26.5229 12.3777 26.5301 12.3849 26.5276 12.3824C26.5274 12.3822 26.5248 12.3796 26.5218 12.3766C26.5186 12.3734 26.5137 12.3685 26.5077 12.3626C26.496 12.351 26.4773 12.3325 26.4542 12.3101C26.4089 12.2662 26.3352 12.196 26.2413 12.1132C26.0534 11.9474 25.7513 11.7007 25.3435 11.456C25.1379 11.3326 24.9088 11.2117 24.656 11.101C24.4028 10.99 24.1357 10.8936 23.856 10.8152C23.5764 10.7369 23.2958 10.68 23.0168 10.643C22.7384 10.606 22.4702 10.59 22.2149 10.59V16.59ZM22.3549 16.66L19.8176 22.0971C21.6975 22.9744 23.0902 24.4193 23.8094 26.1606L29.3549 23.87L34.9005 21.5794C32.9597 16.8807 29.3123 13.2856 24.8922 11.2229L22.3549 16.66ZM29.3549 23.87L23.8165 26.1777C24.0525 26.7441 24.2226 27.2634 24.3486 27.8092L30.1949 26.46L36.0413 25.1108C35.7472 23.8366 35.3574 22.6759 34.8934 21.5623L29.3549 23.87ZM30.1949 26.46L24.5028 28.3574C24.1301 27.2393 24.2454 26.3256 24.3606 25.8316C24.488 25.2858 24.748 24.6741 25.2356 24.0889L29.8449 27.93L34.4543 31.7711C35.2919 30.7659 35.7969 29.6292 36.0467 28.5584C36.2845 27.5394 36.3997 26.1007 35.887 24.5626L30.1949 26.46Z" fill="#FFFEB2" mask="url(#path-1-inside-1_486_13516)"/>
</svg>
