<svg width="41" height="39" viewBox="0 0 41 39" fill="none" xmlns="http://www.w3.org/2000/svg">
<path d="M38.8594 23.5578L7.37374 36.6316L5.90982 32.3623C5.90982 32.3623 9.00453 30.6968 7.98813 27.7959C6.97173 24.8949 3.29297 25.5283 3.29297 25.5283L1.85939 21.1339L33.4512 8.28687L35.0138 12.0948C35.0138 12.0948 31.646 14.2138 32.6927 17.2164C33.7395 20.219 37.4334 19.5153 37.4334 19.5153L38.8594 23.5578Z" stroke="#FFFEB2" stroke-width="3"/>
<path d="M8.74308 18.0303L10.464 22.4591" stroke="#FFFEB2" stroke-width="3" stroke-dasharray="112.5 50"/>
<path d="M11.3245 24.231L13.0454 27.774" stroke="#FFFEB2" stroke-width="3" stroke-dasharray="112.5 50"/>
<path d="M13.4757 29.1025L15.1966 33.0885" stroke="#FFFEB2" stroke-width="3" stroke-dasharray="112.5 50"/>
<path d="M1.85939 20.6878L25.9941 2.08655L28.5338 5.2557C28.5338 5.2557 25.9265 8.29216 27.7824 10.8369" stroke="#FFFEB2" stroke-width="3"/>
</svg>
